<svg width="148" height="148" viewBox="0 0 148 148" fill="none" xmlns="http://www.w3.org/2000/svg">
<g filter="url(#filter0_d_43_24)">
<path d="M75.4503 77.3925C75.5355 77.3259 75.6144 77.2516 75.6862 77.1708C76.029 76.7821 76.2169 76.2809 76.2142 75.7627C76.2101 75.2694 76.0581 74.7887 75.7777 74.3827C75.4628 73.9364 74.9981 73.6178 74.4682 73.4851L74.3732 73.4675L71.9477 66.0538C71.3962 64.4111 70.9022 62.9091 70.4657 61.5479C70.0151 60.1398 69.5774 58.9488 69.1526 57.9749C68.7922 57.0959 68.3188 56.2675 67.7445 55.5107C66.9419 54.5039 66.09 54.2927 65.5162 54.2927C64.7066 54.2927 63.9638 54.7081 63.302 55.5283C62.7207 56.2957 62.236 57.1315 61.8587 58.0171C61.4081 59.0098 60.9505 60.1856 60.4717 61.5374C59.993 62.8892 59.5283 64.3289 59.0179 65.9236L53.5052 83.0249C53.4669 83.2007 53.448 83.3801 53.4488 83.56C53.4413 83.8668 53.5051 84.1712 53.6352 84.4491C53.7653 84.7271 53.9582 84.971 54.1987 85.1617C54.6021 85.4718 55.0979 85.6379 55.6068 85.6334C56.2228 85.6334 57.124 85.4011 57.9055 84.3133C57.9815 84.2065 58.0386 84.0874 58.0744 83.9613L59.9507 77.829H70.7931L72.43 84.1901C72.6149 84.5964 72.9156 84.9391 73.2945 85.1752C73.6734 85.4113 74.1135 85.5303 74.5597 85.5172C75.9432 85.5172 76.8866 84.6865 77.0239 83.3488C77.0369 83.207 77.025 83.064 76.9887 82.9264L75.4503 77.3925ZM66.3224 64.5824L68.6281 71.4363C68.8147 72.0312 68.9801 72.6015 69.1738 73.1542H61.5736L65.386 61.8542C65.6606 62.6779 65.9727 63.585 66.3224 64.5753V64.5824Z" fill="#FF5722"/>
<path d="M88.8763 75.3719C88.9362 73.8089 88.9925 72.1438 89.0488 70.4013L89.3234 61.0023C89.341 60.2982 89.3551 59.6822 89.3656 59.1612C89.5311 59.1612 89.7177 59.1612 89.9078 59.1612C90.7456 59.1964 91.4708 59.2351 92.0903 59.2809C93.3787 59.3689 94.3573 58.605 94.5545 57.0948C94.5636 56.5305 94.3695 55.9818 94.0075 55.5488C93.6456 55.1158 93.1401 54.8274 92.5831 54.7362C92.2311 54.6869 91.7136 54.6341 90.985 54.5708C90.2563 54.5074 87.5386 54.5391 83.0996 54.6553C80.6918 54.5884 78.4212 54.7538 77.9953 56.4154C77.6432 57.8622 78.1431 58.5768 78.6324 58.9218C79.1461 59.2918 79.7842 59.4459 80.4101 59.3513C80.8041 59.3062 81.2 59.2815 81.5965 59.2773L83.9234 59.2421H84.7436C84.7436 59.4463 84.7436 59.6646 84.7436 59.9039C84.7436 60.6995 84.7119 61.6253 84.6732 62.692L84.3211 72.4501C84.2015 75.3742 84.1217 77.5239 84.0818 78.8992C84.0536 79.6947 84.0254 80.3906 83.9973 80.9867C81.9555 80.9515 80.6425 80.9374 80.0476 80.9374C79.5861 80.9331 79.1313 81.0483 78.7275 81.2718C78.2874 81.5147 77.7665 82.0392 77.7665 83.1305C77.7453 83.6233 77.8826 84.8343 79.6357 85.4327C79.7487 85.4737 79.8676 85.4963 79.9877 85.4996L92.1361 85.7038C92.4223 85.7204 92.709 85.6796 92.9792 85.5838C93.2495 85.488 93.4978 85.3391 93.7097 85.1459C93.9216 84.9527 94.0927 84.7191 94.213 84.4589C94.3333 84.1986 94.4003 83.9169 94.4101 83.6304C94.4498 83.325 94.4259 83.0148 94.3399 82.7191C94.2539 82.4235 94.1076 82.1489 93.9103 81.9125C93.6623 81.6527 93.3632 81.4473 93.0317 81.3091C92.7003 81.171 92.3437 81.1031 91.9847 81.1099L88.6088 81.0606C88.651 80.617 88.6827 80.1136 88.7109 79.5539C88.7637 78.3324 88.8235 76.9349 88.8763 75.3719Z" fill="#FF5722"/>
<path d="M135.918 89.9844V81.9935C135.915 79.5049 134.925 77.1191 133.166 75.3591C131.407 73.5992 129.021 72.6087 126.533 72.605H108.981V67.3915H126.533C129.021 67.3887 131.406 66.399 133.166 64.6396C134.925 62.8802 135.915 60.4947 135.918 58.0065V50.0156C138.414 49.4373 140.611 47.9605 142.089 45.8667C143.567 43.7729 144.223 41.2085 143.932 38.6621C143.641 36.1157 142.424 33.7653 140.511 32.059C138.599 30.3527 136.125 29.4097 133.562 29.4097C130.999 29.4097 128.526 30.3527 126.614 32.059C124.701 33.7653 123.483 36.1157 123.192 38.6621C122.901 41.2085 123.557 43.7729 125.036 45.8667C126.514 47.9605 128.711 49.4373 131.207 50.0156V58.0065C131.206 59.2464 130.714 60.4353 129.837 61.3124C128.961 62.1895 127.772 62.6831 126.533 62.6849H108.981V43.4785C108.975 41.2395 108.083 39.0938 106.5 37.5106C104.917 35.9274 102.771 35.0355 100.532 35.0299H81.3115V17.471C81.3125 16.2305 81.8057 15.041 82.6828 14.1639C83.56 13.2867 84.7494 12.7935 85.9899 12.7926H93.9879C94.5662 15.2895 96.043 17.4863 98.1368 18.9644C100.231 20.4425 102.795 21.0986 105.341 20.8075C107.888 20.5165 110.238 19.2987 111.944 17.3863C113.651 15.4739 114.594 13.0005 114.594 10.4375C114.594 7.87456 113.651 5.40118 111.944 3.48875C110.238 1.57633 107.888 0.35856 105.341 0.0675325C102.795 -0.223495 100.231 0.432561 98.1368 1.91067C96.043 3.38878 94.5662 5.58561 93.9879 8.0825H85.9899C83.5014 8.08622 81.116 9.07667 79.3566 10.8366C77.5973 12.5966 76.6078 14.9825 76.605 17.471V35.0194H71.395V17.471C71.3922 14.9819 70.4022 12.5955 68.6421 10.8354C66.882 9.07533 64.4957 8.08529 62.0065 8.0825H54.0121C53.4338 5.58561 51.957 3.38878 49.8632 1.91067C47.7694 0.432561 45.2049 -0.223495 42.6585 0.0675325C40.1121 0.35856 37.7618 1.57633 36.0555 3.48875C34.3492 5.40118 33.4062 7.87456 33.4062 10.4375C33.4062 13.0005 34.3492 15.4739 36.0555 17.3863C37.7618 19.2987 40.1121 20.5165 42.6585 20.8075C45.2049 21.0986 47.7694 20.4425 49.8632 18.9644C51.957 17.4863 53.4338 15.2895 54.0121 12.7926H62.0065C63.247 12.7935 64.4365 13.2867 65.3136 14.1639C66.1908 15.041 66.684 16.2305 66.6849 17.471V35.0194H47.4785C45.2395 35.025 43.0938 35.9169 41.5106 37.5001C39.9274 39.0833 39.0355 41.229 39.0299 43.468V62.6744H21.4675C20.2273 62.6734 19.0382 62.1801 18.1616 61.3029C17.285 60.4256 16.7926 59.2362 16.7926 57.996V50.005C19.2895 49.4267 21.4863 47.95 22.9644 45.8562C24.4425 43.7624 25.0986 41.1979 24.8075 38.6515C24.5165 36.1051 23.2987 33.7548 21.3863 32.0485C19.4739 30.3422 17.0005 29.3992 14.4375 29.3992C11.8746 29.3992 9.40118 30.3422 7.48875 32.0485C5.57633 33.7548 4.35856 36.1051 4.06753 38.6515C3.7765 41.1979 4.43256 43.7624 5.91067 45.8562C7.38878 47.95 9.58561 49.4267 12.0825 50.005V57.996C12.0853 60.4842 13.075 62.8696 14.8344 64.6291C16.5938 66.3885 18.9793 67.3781 21.4675 67.3809H39.0194V72.605H21.4675C18.9789 72.6087 16.5935 73.5992 14.8342 75.3591C13.0748 77.1191 12.0853 79.5049 12.0825 81.9935V89.9844C9.58561 90.5627 7.38878 92.0395 5.91067 94.1333C4.43256 96.2271 3.7765 98.7915 4.06753 101.338C4.35856 103.884 5.57633 106.235 7.48875 107.941C9.40118 109.647 11.8746 110.59 14.4375 110.59C17.0005 110.59 19.4739 109.647 21.3863 107.941C23.2987 106.235 24.5165 103.884 24.8075 101.338C25.0986 98.7915 24.4425 96.2271 22.9644 94.1333C21.4863 92.0395 19.2895 90.5627 16.7926 89.9844V81.9935C16.7926 80.7533 17.285 79.5638 18.1616 78.6866C19.0382 77.8093 20.2273 77.316 21.4675 77.3151H39.0194V96.5215C39.025 98.7605 39.9169 100.906 41.5001 102.489C43.0833 104.073 45.229 104.964 47.468 104.97H66.6744V122.518C66.6734 123.759 66.1802 124.948 65.3031 125.826C64.4259 126.703 63.2365 127.196 61.996 127.197H54.0121C53.4338 124.7 51.957 122.503 49.8632 121.025C47.7694 119.547 45.2049 118.891 42.6585 119.182C40.1121 119.473 37.7618 120.691 36.0555 122.603C34.3492 124.516 33.4062 126.989 33.4062 129.552C33.4062 132.115 34.3492 134.588 36.0555 136.501C37.7618 138.413 40.1121 139.631 42.6585 139.922C45.2049 140.213 47.7694 139.557 49.8632 138.079C51.957 136.601 53.4338 134.404 54.0121 131.907H62.0065C64.4957 131.904 66.882 130.914 68.6421 129.154C70.4022 127.394 71.3922 125.008 71.395 122.518V104.981H76.605V122.529C76.6078 125.018 77.5973 127.403 79.3566 129.163C81.116 130.923 83.5014 131.914 85.9899 131.918H93.9879C94.5662 134.414 96.043 136.611 98.1368 138.089C100.231 139.567 102.795 140.223 105.341 139.932C107.888 139.641 110.238 138.424 111.944 136.511C113.651 134.599 114.594 132.125 114.594 129.562C114.594 126.999 113.651 124.526 111.944 122.614C110.238 120.701 107.888 119.483 105.341 119.192C102.795 118.901 100.231 119.557 98.1368 121.036C96.043 122.514 94.5662 124.711 93.9879 127.207H85.9899C84.7494 127.206 83.56 126.713 82.6828 125.836C81.8057 124.959 81.3125 123.77 81.3115 122.529V104.981H100.521C102.76 104.975 104.906 104.083 106.489 102.5C108.073 100.917 108.964 98.771 108.97 96.532V77.3151H126.522C127.762 77.3169 128.95 77.8105 129.827 78.6876C130.703 79.5647 131.196 80.7536 131.197 81.9935V89.9844C128.7 90.5627 126.503 92.0395 125.025 94.1333C123.547 96.2271 122.891 98.7915 123.182 101.338C123.473 103.884 124.691 106.235 126.603 107.941C128.516 109.647 130.989 110.59 133.552 110.59C136.115 110.59 138.588 109.647 140.501 107.941C142.413 106.235 143.631 103.884 143.922 101.338C144.213 98.7915 143.557 96.2271 142.079 94.1333C140.601 92.0395 138.404 90.5627 135.907 89.9844H135.918ZM127.821 39.8667C127.821 38.7333 128.157 37.6252 128.787 36.6828C129.417 35.7403 130.312 35.0058 131.359 34.572C132.406 34.1383 133.558 34.0248 134.67 34.2459C135.782 34.467 136.803 35.0129 137.604 35.8144C138.406 36.6158 138.952 37.637 139.173 38.7487C139.394 39.8604 139.28 41.0127 138.847 42.0599C138.413 43.1071 137.678 44.0021 136.736 44.6319C135.793 45.2616 134.685 45.5977 133.552 45.5977C132.034 45.593 130.58 44.9874 129.508 43.9134C128.436 42.8393 127.833 41.3843 127.832 39.8667H127.821ZM104.133 4.71011C105.267 4.70941 106.376 5.04502 107.319 5.67448C108.262 6.30394 108.997 7.19895 109.431 8.24629C109.865 9.29363 109.979 10.4462 109.758 11.5582C109.537 12.6703 108.991 13.6918 108.189 14.4934C107.387 15.2951 106.366 15.841 105.254 16.0621C104.142 16.2831 102.989 16.1693 101.942 15.7351C100.895 15.3009 99.9997 14.5658 99.3702 13.6228C98.7407 12.6798 98.4051 11.5713 98.4058 10.4375C98.4077 8.9191 99.0117 7.46339 100.085 6.38969C101.159 5.31599 102.615 4.71197 104.133 4.71011ZM43.8667 16.1685C42.7331 16.1692 41.6248 15.8337 40.6818 15.2044C39.7389 14.5751 39.0038 13.6803 38.5695 12.6331C38.1352 11.586 38.0212 10.4336 38.242 9.32164C38.4627 8.20972 39.0082 7.18823 39.8096 6.38639C40.6109 5.58455 41.6321 5.03838 42.7439 4.81696C43.8557 4.59555 45.0081 4.70883 46.0555 5.14249C47.1029 5.57615 47.9982 6.3107 48.6281 7.25323C49.258 8.19575 49.5942 9.30391 49.5942 10.4375C49.5923 11.9563 48.9884 13.4124 47.9148 14.4866C46.8412 15.5609 45.3855 16.1657 43.8667 16.1685ZM8.71011 39.8667C8.71011 38.7331 9.04631 37.625 9.67619 36.6824C10.3061 35.7399 11.2013 35.0054 12.2487 34.5717C13.2961 34.138 14.4486 34.0248 15.5604 34.2462C16.6722 34.4676 17.6933 35.0138 18.4947 35.8156C19.296 36.6174 19.8416 37.6389 20.0623 38.7508C20.2831 39.8628 20.1691 41.0152 19.7348 42.0623C19.3005 43.1095 18.5654 44.0043 17.6224 44.6336C16.6795 45.2629 15.5712 45.5984 14.4375 45.5977C12.9185 45.5958 11.4622 44.9913 10.3884 43.9169C9.31465 42.8424 8.71104 41.3858 8.71011 39.8667ZM20.1685 100.133C20.1685 101.267 19.8324 102.375 19.2026 103.317C18.5729 104.26 17.6779 104.994 16.6307 105.428C15.5835 105.862 14.4312 105.975 13.3195 105.754C12.2078 105.533 11.1866 104.987 10.3851 104.186C9.58365 103.384 9.03784 102.363 8.81671 101.251C8.59558 100.14 8.70907 98.9873 9.14283 97.9401C9.57659 96.8929 10.3111 95.9979 11.2536 95.3681C12.196 94.7384 13.3041 94.4023 14.4375 94.4023C15.9569 94.4042 17.4135 95.0086 18.4879 96.0829C19.5622 97.1573 20.1666 98.6139 20.1685 100.133ZM43.8667 135.29C42.733 135.291 41.6245 134.955 40.6815 134.326C39.7385 133.696 39.0034 132.801 38.5692 131.754C38.135 130.706 38.0212 129.554 38.2422 128.442C38.4632 127.33 39.0091 126.308 39.8108 125.507C40.6125 124.705 41.634 124.159 42.746 123.938C43.8581 123.717 45.0107 123.831 46.058 124.265C47.1053 124.699 48.0003 125.434 48.6298 126.377C49.2593 127.32 49.5949 128.429 49.5942 129.562C49.5923 131.081 48.9883 132.537 47.9146 133.61C46.8409 134.684 45.3852 135.288 43.8667 135.29ZM104.133 123.832C105.267 123.831 106.375 124.166 107.318 124.796C108.261 125.425 108.996 126.32 109.43 127.367C109.865 128.414 109.979 129.566 109.758 130.678C109.537 131.79 108.992 132.812 108.19 133.614C107.389 134.415 106.368 134.962 105.256 135.183C104.144 135.404 102.992 135.291 101.944 134.858C100.897 134.424 100.002 133.689 99.3719 132.747C98.742 131.804 98.4058 130.696 98.4058 129.562C98.4077 128.044 99.0116 126.588 100.085 125.513C101.159 124.439 102.614 123.834 104.133 123.832ZM104.271 96.5215C104.27 97.5158 103.874 98.4692 103.172 99.1727C102.469 99.8761 101.516 100.272 100.521 100.274H47.4785C46.4836 100.273 45.5296 99.8775 44.8261 99.1739C44.1225 98.4704 43.7269 97.5164 43.7259 96.5215V43.4785C43.7269 42.4836 44.1225 41.5296 44.8261 40.8261C45.5296 40.1225 46.4836 39.7269 47.4785 39.7259H100.521C101.516 39.7269 102.47 40.1225 103.174 40.8261C103.877 41.5296 104.273 42.4836 104.274 43.4785L104.271 96.5215ZM133.562 105.861C132.429 105.861 131.32 105.526 130.377 104.896C129.434 104.267 128.699 103.372 128.265 102.325C127.831 101.277 127.717 100.125 127.938 99.0125C128.159 97.9005 128.705 96.879 129.507 96.0773C130.308 95.2756 131.33 94.7298 132.442 94.5087C133.554 94.2877 134.706 94.4015 135.754 94.8357C136.801 95.2699 137.696 96.005 138.326 96.948C138.955 97.891 139.291 98.9995 139.29 100.133C139.287 101.651 138.683 103.107 137.609 104.18C136.536 105.254 135.081 105.858 133.562 105.861Z" fill="#FF5722"/>
</g>
<defs>
<filter id="filter0_d_43_24" x="0" y="0" width="148" height="148" filterUnits="userSpaceOnUse" color-interpolation-filters="sRGB">
<feFlood flood-opacity="0" result="BackgroundImageFix"/>
<feColorMatrix in="SourceAlpha" type="matrix" values="0 0 0 0 0 0 0 0 0 0 0 0 0 0 0 0 0 0 127 0" result="hardAlpha"/>
<feOffset dy="4"/>
<feGaussianBlur stdDeviation="2"/>
<feComposite in2="hardAlpha" operator="out"/>
<feColorMatrix type="matrix" values="0 0 0 0 0 0 0 0 0 0 0 0 0 0 0 0 0 0 0.25 0"/>
<feBlend mode="normal" in2="BackgroundImageFix" result="effect1_dropShadow_43_24"/>
<feBlend mode="normal" in="SourceGraphic" in2="effect1_dropShadow_43_24" result="shape"/>
</filter>
</defs>
</svg>
